<?xml version="1.0" encoding="utf-8"?>
<!-- Svg Vector Icons : http://www.onlinewebfonts.com/icon -->
<!DOCTYPE svg PUBLIC "-//W3C//DTD SVG 1.1//EN" "http://www.w3.org/Graphics/SVG/1.1/DTD/svg11.dtd">
<svg version="1.1" xmlns="http://www.w3.org/2000/svg" xmlns:xlink="http://www.w3.org/1999/xlink" x="0px" y="0px" viewBox="0 0 1000 1000" enable-background="new 0 0 1000 1000" xml:space="preserve">
<metadata> Svg Vector Icons : http://www.onlinewebfonts.com/icon </metadata>
<g><path d="M691.6,537c24.4-8.5,49.4-22.2,70.8-41.7c60.4-55,73.3-132.4,44.7-158.4c-22.7-20.6-80.7-17.6-133.9,11.9c7.4-19.2,3.4-41.9-12-57.3l-17.7-17.7c-1-1.1-1.9-2.2-3-3.2c-1.2-1.2-2.4-2.3-3.6-3.3l-0.2-0.2c-6.5-6.5-14.4-11-22.7-13.5c-11.5-4.5-23.8-6.5-35.5-6.8c0.1-1.4,0.1-2.7,0.1-4.1c9.7-0.2,19.7-1.7,29.5-4.7c10.8-1.7,21.1-6.6,29.4-14.9l24.5-24.5c20.8-20.8,20.8-54.9,0-75.8l-8.8-8.8c-1.2-1.5-2.4-2.9-3.8-4.3c-1.4-1.4-2.8-2.6-4.3-3.8l-8.1-8.1C616.1,77,582,77,561.1,97.8l-17.7,17.7c-1.1,1-2.2,1.9-3.2,3c-1.2,1.2-2.3,2.4-3.3,3.6l-0.2,0.2c-6.2,6.2-10.5,13.6-13,21.5c-1.8-1.1-3.6-2.2-5.5-3.2c3.5-5.1,6.7-10.6,9.2-16.4c4.2-7.6,6.6-16.3,6.6-25.6v-0.3c0.1-1.6,0.2-3.3,0.2-4.9c0-1.5-0.1-2.9-0.2-4.4v-25c0-29.5-24.1-53.6-53.6-53.6h-11.5c-1.9-0.2-3.8-0.3-5.7-0.3c-1.9,0-3.8,0.2-5.7,0.3h-12.4c-29.5,0-53.6,24.1-53.6,53.6v34.6c0,11.7,3.8,22.5,10.2,31.3c2,3.8,4.2,7.3,6.6,10.8c-1.8,1-3.6,2-5.4,3.1c-2.5-7.9-6.8-15.3-13-21.5l-0.2-0.2c-1.1-1.2-2.2-2.4-3.3-3.6c-1.1-1.1-2.2-2-3.2-3l-17.7-17.7c-20.8-20.8-54.9-20.8-75.8,0l-8.1,8.1c-1.5,1.2-2.9,2.4-4.3,3.8c-1.4,1.4-2.6,2.8-3.8,4.3l-8.8,8.8c-20.8,20.8-20.8,54.9,0,75.8l24.5,24.5c8.3,8.3,18.6,13.2,29.4,14.9c9.7,3.1,19.8,4.5,29.5,4.7c0,1.4,0,2.7,0.1,4.1c-11.7,0.3-24,2.3-35.5,6.8c-8.3,2.4-16.2,6.9-22.7,13.5l-0.2,0.2c-1.2,1.1-2.4,2.2-3.6,3.3c-1.1,1.1-2,2.2-3,3.2l-17.7,17.7c-20.8,20.8-20.8,54.9,0,75.8l8.1,8.1c1.2,1.5,2.4,2.9,3.8,4.3c1.3,1.3,2.7,2.5,4.1,3.7c-25.7-1.4-47.3,3.5-59.6,14.5c-24.6,22.1-21.8,83.8,10.9,139.2h-60.3c-22.8,0-41.4,18.6-41.4,41.4v80.7c0,0,0,0,0,0V705h41.4l74.6,0.5l12.6,68.1L290.1,962c2.7,16.1,16.6,28,33,28h357.7c16.7,0,30.8-12.3,33.1-28.9L749,705h78.5c22.8,0,41.4-23.1,41.4-45.8V613l0,0v-76H691.6z M527.4,263.5c-0.4,1.3-0.9,2.5-1.4,3.7c-0.3,0.8-0.7,1.7-1.1,2.5c-0.4,0.9-0.8,1.7-1.2,2.5c-1.1,2.3-2.4,4.5-3.8,6.6c-9.7,14.8-24.9,25.7-42.9,29.4l0,0c-2.2,0.5-4.4,0.8-6.7,1c0,0-0.1,0-0.1,0c-2.3,0.2-4.6,0.4-7,0.4c-2.4,0-4.8-0.1-7.1-0.4c-0.1,0-0.1,0-0.2,0c-2.3-0.2-4.5-0.6-6.7-1.1l0,0c-17.9-3.8-33.1-14.6-42.7-29.4c-1.4-2.1-2.6-4.3-3.7-6.6c-0.4-0.8-0.8-1.7-1.2-2.5c-0.4-0.8-0.7-1.6-1.1-2.5c-0.5-1.2-0.9-2.5-1.4-3.7c-0.2-0.6-0.4-1.1-0.6-1.7l0,0c-1.9-6.3-3-12.9-3-19.8c0-4.3,0.4-8.4,1.2-12.5l0,0c1.9-9.9,5.9-19.1,11.6-27l0,0c9.7-13.4,24.1-23.2,40.8-26.7l0,0c2.2-0.5,4.5-0.8,6.7-1.1c0.1,0,0.1,0,0.2,0c2.3-0.2,4.7-0.4,7.1-0.4c2.4,0,4.7,0.1,7,0.4c0,0,0.1,0,0.1,0c2.3,0.2,4.5,0.6,6.7,1l0,0c16.8,3.5,31.3,13.3,41,26.7c5.7,7.9,9.7,17,11.6,27l0,0c0.8,4.1,1.2,8.2,1.2,12.5c0,6.9-1,13.5-3,19.8C527.8,262.4,527.6,262.9,527.4,263.5z M366.2,392.2l24.5-24.5c7.5-7.5,12.2-16.6,14.3-26.3c1.1,0.7,2.2,1.3,3.4,2c-2.4,3.4-4.7,7-6.6,10.8c-6.4,8.8-10.2,19.6-10.2,31.3v34.6c0,0.6,0.1,1.1,0.1,1.7c-12.3-8.1-25-14.9-37.7-20.4C358.3,399,362.4,396,366.2,392.2z M388.6,523.4C388.6,524.1,388.6,522.7,388.6,523.4l-127.4-97.8c56.4-7.6,88,7.1,105,22c15.1,12.8,39.3,45.8,38.3,87L388.6,523.4z M515.5,537h-36.3c-5.9-20.7-16.3-42.7-31.9-63.4h10.2c1.9,0.2,3.8,0.3,5.7,0.3c1.9,0,3.8-0.2,5.7-0.3h11.5c10.7,0,20.6-3.2,29-8.6C520.6,484.7,520.2,511.5,515.5,537z M533.9,421.8c0-0.6,0.1-1.1,0.1-1.7v-25c0.1-1.5,0.2-2.9,0.2-4.4c0-1.6-0.1-3.3-0.2-4.9v-0.3c0-9.3-2.4-18-6.6-25.6c-2.5-5.8-5.7-11.3-9.2-16.4c1.2-0.6,2.3-1.3,3.5-2c2.1,9.7,6.8,18.8,14.3,26.3l24.5,24.5c12.5,12.5,29.8,17.5,46.1,14.9c-16.8,23.5-26.5,48.7-30,70.8C564.7,449.2,547.9,432,533.9,421.8z M635,478.4c-6.1-26.3,5.5-50.8,25.8-69.8c41.5-38.9,87.1-56,108.3-38.7L635,478.4z"/></g>
</svg>