<?xml version="1.0" encoding="UTF-8"?>
<!-- Svg Vector Icons : http://www.onlinewebfonts.com/icon -->
<!DOCTYPE svg PUBLIC "-//W3C//DTD SVG 1.1//EN" "http://www.w3.org/Graphics/SVG/1.1/DTD/svg11.dtd">
<svg version="1.1" xmlns="http://www.w3.org/2000/svg" xmlns:xlink="http://www.w3.org/1999/xlink" x="0px" y="0px" viewBox="0 0 1000 1000" enable-background="new 0 0 1000 1000" xml:space="preserve">
<metadata> Svg Vector Icons : http://www.onlinewebfonts.com/icon </metadata>
<g><g transform="translate(0.000000,511.000000) scale(0.100000,-0.100000)"><path d="M4707,4958.1c-215.2-78.8-394.1-232.2-500.6-428.2c-66-119.3-127.8-383.5-108.6-468.7l12.8-57.5l-91.6,32c-144.9,51.1-349.4,59.6-507,19.2c-272.7-70.3-479.3-242.9-605-502.8c-61.8-129.9-66-155.5-66-372.8c0-219.4,4.3-242.8,68.2-377.1c91.6-193.8,232.2-340.8,417.5-432.4c81-40.5,161.9-74.6,176.8-74.6c40.5,0,38.3-14.9-23.4-93.7c-198.1-259.9-221.5-654-59.6-954.4c176.8-325.9,568.8-524,924.6-466.5c240.7,40.5,496.4,196,622,385.6l36.2,51.1l36.2-51.1c183.2-270.6,562.4-436.7,881.9-385.6c396.2,63.9,696.6,364.3,766.9,764.8c38.4,219.4-34.1,502.8-176.8,686l-40.5,51.1l106.5,36.2c509.1,174.7,749.9,771.2,504.9,1263.3c-196,400.5-679.6,600.8-1092.8,455.9l-89.5-32l10.6,55.4c19.2,87.3-27.7,294-98,443.1c-78.8,170.4-234.3,323.8-419.7,415.4c-127.8,61.8-164,70.3-355.8,76.7C4862.5,5000.7,4798.6,4992.2,4707,4958.1z M5258.7,3477.5c208.8-70.3,411.1-291.9,470.8-511.3c12.8-46.9,19.2-157.6,14.9-247.1c-17-287.6-170.4-507-438.8-632.7c-102.2-49-149.1-57.5-302.5-57.5c-149.1,2.1-202.4,10.6-300.4,57.5c-161.9,74.6-274.8,181.1-362.2,340.8c-68.2,125.7-72.4,147-72.4,336.6c0,174.7,8.5,219.4,57.5,323.8C4489.7,3439.2,4885.9,3605.3,5258.7,3477.5z"/><path d="M1850.2,1658.2c-170.4-55.4-349.4-200.3-409-334.5l-23.4-53.3l-66,63.9c-176.8,170.4-490,215.2-720,102.2C256.7,1251.3,152.3,740.1,431.4,435.4l74.6-78.8L425,314C314.3,258.6,177.9,98.8,137.4-20.5C28.8-340,163-672.3,457-817.2c172.6-85.2,366.4-93.8,528.3-21.3c57.5,23.4,106.5,44.7,110.8,44.7c4.3,0,8.5-27.7,8.5-59.6c0-87.3,117.2-311,198.1-379.2c176.8-151.3,438.8-200.3,660.4-123.6c130,42.6,279.1,178.9,351.5,315.3c46.9,91.6,55.4,136.3,57.5,279.1v170.4l132.1-6.4c445.2-25.6,764.8,396.2,637,837.2c-63.9,213-334.5,436.7-530.4,436.7c-29.8,0-36.2,8.5-25.6,38.3c83.1,193.9,98,377.1,40.5,543.2c-44.7,130-178.9,281.2-315.3,349.4C2195.3,1666.8,1954.6,1692.3,1850.2,1658.2z M1779.9,686.8c206.6-87.3,334.4-274.8,332.3-490c0-149.1-38.3-249.2-134.2-360c-110.8-123.6-219.4-172.6-394.1-170.4c-176.8,0-285.5,49-394.1,170.4c-98,112.9-134.2,210.9-134.2,362.2c2.1,291.8,230.1,519.8,521.9,519.8C1645.7,718.8,1737.3,703.8,1779.9,686.8z"/><path d="M7751.2,1641.2c-134.2-49-323.8-242.8-368.5-377c-59.6-172.6-46.9-351.5,38.3-549.6c10.7-29.8,4.3-38.3-25.6-38.3c-183.2,0-458-217.3-524-413.3c-83.1-245-27.7-492.1,155.5-675.3c142.7-144.9,274.8-196,475.1-185.3l132.1,6.4v-170.4c2.1-206.6,61.8-340.8,213-475c236.5-208.8,607.1-206.7,856.4,4.3c80.9,68.2,198.1,291.9,198.1,379.2c0,32,4.3,59.6,8.5,59.6c4.2,0,53.3-21.3,110.8-44.7c72.4-34.1,147-46.9,247.1-46.9c249.2,0,462.3,134.2,581.6,368.5c55.4,108.7,68.2,351.5,23.4,485.7c-42.6,127.8-176.8,287.6-289.7,345.1l-80.9,40.5l72.4,80.9c110.8,119.3,164,283.3,153.4,464.4c-17,245-138.5,432.5-353.6,536.8c-102.2,51.1-147,59.6-291.9,57.5c-189.6,0-304.6-44.8-430.3-164l-68.2-63.9l-21.3,55.4c-34.1,89.5-172.5,227.9-287.6,285.5C8136.7,1679.5,7893.9,1694.4,7751.2,1641.2z M8618.2,686.8c206.6-87.3,330.2-268.4,332.3-487.8c4.3-494.2-594.3-726.5-926.7-357.9c-302.5,334.5-59.6,877.7,392,877.7C8484,718.8,8575.6,703.8,8618.2,686.8z"/><path d="M4860.3,733.7l-134.2-66V-14.1v-679.6l-176.8,170.4c-200.3,191.7-360,304.6-590.1,421.8c-147,74.6-366.4,159.8-409,159.8c-8.5,0-17-51.1-17-115c0-125.7-29.8-227.9-89.5-315.3c-55.4-78.8-49-91.6,53.3-121.4c140.6-42.6,396.2-185.3,547.5-306.8c185.3-149.1,362.2-364.3,468.7-570.9c95.9-185.3,174.7-392,155.5-411.1c-8.5-6.4-443.1-12.8-969.3-12.8c-1050.2,0-1048.1,0-1114.2-127.8c-17-34.1-32-102.2-32-151.2c0-74.6,12.8-102.3,83.1-170.4l83.1-83.1h215.2c196,0,215.2-4.3,215.2-40.5c0-66,189.6-2136.7,202.4-2211.3c6.4-40.5,42.6-93.7,87.3-132.1l74.6-66h1491.2h1493.3l70.3,70.3c40.5,40.5,76.7,95.9,83.1,123.6c12.8,51.1,204.5,2138.8,204.5,2215.5c0,36.2,19.2,40.5,215.2,40.5h215.2l83.1,83.1c70.3,68.2,83.1,95.9,83.1,170.4c0,49-14.9,117.2-32,151.2c-66,127.8-63.9,127.8-1118.4,127.8c-752,0-958.7,6.4-958.7,27.7c2.1,55.4,127.8,343,213,485.7c206.7,347.2,619.9,681.7,975.7,786.1c49,14.9,89.5,34.1,89.5,42.6c0,8.5-25.6,70.3-55.4,136.3c-29.8,68.2-59.7,178.9-66.1,249.3c-12.8,125.7-12.8,127.8-68.2,115c-29.8-8.5-127.8-42.6-215.1-76.7c-285.4-115-553.9-298.2-796.7-545.4L5280-717.1v692.4v692.3l-138.5,68.2c-76.7,38.4-140.6,68.2-144.8,66.1C4994.6,801.9,4932.8,772,4860.3,733.7z"/></g></g>
</svg>