<?xml version="1.0" encoding="UTF-8"?><svg xmlns="http://www.w3.org/2000/svg" xmlns:xlink="http://www.w3.org/1999/xlink" version="1.1" id="Layer_1" x="0px" y="0px" viewBox="0 0 52 52" xml:space="preserve"><style type="text/css">.st0{fill:#3C93C9;} .st1{fill:none;stroke:#000000;stroke-width:2;stroke-linecap:round;stroke-linejoin:round;stroke-miterlimit:10;}</style><path d="M37.73 13.761c1.3-1.2 1.95-3.4 1.32-5.07-.64-1.73-2.58-2.65-4.2-2.68-.05-.83-.42-1.67-1.07-2.39-.75-.83-1.77-1.41-2.79-1.58-1.74-.29-3.84.95-4.78 2.56-.53-.19-1.11-.29-1.71-.29-1.34 0-2.58.52-3.3 1.4-1.14 1.38-1.23 3.67-.39 5.22-.5.45-.91 1.05-1.19 1.76-.46 1.13-.51 2.35-.14 3.33.65 1.75 3.03 2.98 4.83 3.04.08.62.3 1.23.63 1.77.084.136.189.25.285.373-.44.568-.941 1.484-1.37 2.926a6.44 6.44 0 0 0-1.224-1.239c-.41-.31-.88-.59-1.43-.86-.5-.24-1.71-.89-2.37-1.87a.973.973 0 0 0-.92-.44c-.37.03-.69.27-.83.61-.04.1-1.01 2.48-.1 4.81.78 1.99 2.85 3.32 5.15 3.32.11 0 .21 0 .32-.01.219-.011.427-.04.63-.077-.121 1.256-.18 2.727-.173 4.397H13.7c-.29 0-.57.13-.76.36-.19.22-.27.52-.22.81l2.72 15.24c.09.47.5.82.98.82H31.4c.48 0 .9-.35.98-.82l2.72-15.24a.948.948 0 0 0-.21-.81.992.992 0 0 0-.77-.36h-9.215c-.033-6.887 1.266-9.48 1.898-10.323.241.098.49.172.747.213.23.04.47.06.71.06 1.68 0 3.58-.95 4.23-2.56.48.15 1.01.24 1.54.24 1.35 0 2.58-.53 3.3-1.4.71-.86 1.06-2.15.93-3.44-.06-.67-.25-1.29-.53-1.8zm-5.65.92c-.62.75-1.49 1.21-2.46 1.31-.12.01-.24.01-.36.01a3.61 3.61 0 0 1-3.61-3.27c-.2-2 1.27-3.78 3.26-3.98a3.626 3.626 0 0 1 3.97 3.27c.1.96-.19 1.91-.8 2.66z"/><metadata><rdf:RDF xmlns:rdf="http://www.w3.org/1999/02/22-rdf-syntax-ns#" xmlns:rdfs="http://www.w3.org/2000/01/rdf-schema#" xmlns:dc="http://purl.org/dc/elements/1.1/"><rdf:Description about="https://iconscout.com/legal#licenses" dc:title="flower,growth,garden,nature" dc:description="flower,growth,garden,nature" dc:publisher="Iconscout" dc:date="2017-12-03" dc:format="image/svg+xml" dc:language="en"><dc:creator><rdf:Bag><rdf:li>Icon River</rdf:li></rdf:Bag></dc:creator></rdf:Description></rdf:RDF></metadata></svg>