<?xml version="1.0" encoding="windows-1252"?>
<!-- Generator: Adobe Illustrator 17.1.0, SVG Export Plug-In . SVG Version: 6.00 Build 0)  -->
<!DOCTYPE svg PUBLIC "-//W3C//DTD SVG 1.1//EN" "http://www.w3.org/Graphics/SVG/1.1/DTD/svg11.dtd">
<svg version="1.1" id="Capa_1" xmlns="http://www.w3.org/2000/svg" xmlns:xlink="http://www.w3.org/1999/xlink" x="0px" y="0px" viewBox="0 0 213.217 213.217" style="enable-background:new 0 0 213.217 213.217;" xml:space="preserve">
<path d="M157.698,198.217h-10.647l8.596-65.563c0.28-2.141-0.375-4.299-1.799-5.922c-1.424-1.623-3.479-2.553-5.638-2.553h-23.496  l13.755-13.755c2.929-2.929,2.929-7.678,0-10.606c-2.929-2.929-7.678-2.929-10.606,0l-13.755,13.755V85.745  c3.126-2.062,5.347-5.371,5.973-9.213c2.31,1.67,5.07,2.584,7.976,2.584c3.65,0,7.083-1.421,9.664-4.003  c4.799-4.799,5.261-12.302,1.415-17.639c6.493-1.055,11.472-6.687,11.472-13.474s-4.978-12.418-11.472-13.474  c3.845-5.337,3.384-12.839-1.415-17.639c-2.581-2.582-6.013-4.003-9.664-4.003c-2.906,0-5.666,0.914-7.976,2.584  C119.025,4.976,113.394,0,106.609,0S94.193,4.976,93.136,11.468c-2.31-1.67-5.07-2.584-7.976-2.584c-3.65,0-7.083,1.421-9.664,4.003  c-4.799,4.8-5.26,12.301-1.415,17.639C67.587,31.582,62.609,37.213,62.609,44s4.978,12.418,11.472,13.474  c-3.846,5.338-3.384,12.84,1.415,17.639c2.581,2.582,6.013,4.003,9.664,4.003c2.906,0,5.666-0.914,7.976-2.584  c0.626,3.843,2.847,7.152,5.973,9.213v27.827L85.354,99.817c-2.928-2.929-7.677-2.929-10.606,0c-2.929,2.929-2.929,7.678,0,10.606  l13.755,13.755H65.006c-2.159,0-4.213,0.931-5.638,2.553c-1.424,1.623-2.079,3.781-1.799,5.922l8.596,65.563H55.519  c-4.142,0-7.5,3.358-7.5,7.5s3.358,7.5,7.5,7.5h19.194h63.79h19.194c4.142,0,7.5-3.358,7.5-7.5S161.84,198.217,157.698,198.217z   M88.33,44c0-10.079,8.2-18.279,18.279-18.279s18.279,8.2,18.279,18.279s-8.2,18.279-18.279,18.279S88.33,54.079,88.33,44z"/>
<g>
</g>
<g>
</g>
<g>
</g>
<g>
</g>
<g>
</g>
<g>
</g>
<g>
</g>
<g>
</g>
<g>
</g>
<g>
</g>
<g>
</g>
<g>
</g>
<g>
</g>
<g>
</g>
<g>
</g>
</svg>